# 3ds Max Wavefront OBJ Exporter v0.97b - (c)2007 guruware
# File Created: 22.01.2017 13:10:24

mtllib Block object.mtl

#
# object ChamferBox001
#

v  -15.2590 9.7321 -5.9218
v  -15.2590 34.1584 -5.9218
v  17.0517 34.1584 -5.9218
v  17.0517 9.7321 -5.9218
v  -15.2590 2.6290 2.0920
v  -29.3749 9.7321 2.0920
v  -29.3749 34.1584 2.0920
v  -15.2590 41.2616 2.0920
v  17.0517 41.2616 2.0920
v  31.1676 34.1584 2.0920
v  31.1676 9.7321 2.0920
v  17.0517 2.6290 2.0920
v  -15.2590 2.6290 18.2511
v  -29.3749 9.7321 18.2511
v  -29.3749 34.1584 18.2511
v  -15.2590 41.2616 18.2511
v  17.0517 41.2616 18.2511
v  31.1676 34.1584 18.2511
v  31.1676 9.7321 18.2511
v  17.0517 2.6290 18.2511
v  -15.2590 9.7321 26.2649
v  -15.2590 34.1584 26.2649
v  17.0517 34.1584 26.2649
v  17.0517 9.7321 26.2649
# 24 vertices

vn -0.3416 -0.3416 -0.8756
vn -0.3416 0.3416 -0.8756
vn 0.3416 0.3416 -0.8756
vn 0.3416 -0.3416 -0.8756
vn -0.3416 -0.8756 -0.3416
vn -0.8756 -0.3416 -0.3416
vn -0.8756 0.3416 -0.3416
vn -0.3416 0.8756 -0.3416
vn 0.3416 0.8756 -0.3416
vn 0.8756 0.3416 -0.3416
vn 0.8756 -0.3416 -0.3416
vn 0.3416 -0.8756 -0.3416
vn -0.3416 -0.8756 0.3416
vn -0.8756 -0.3416 0.3416
vn -0.8756 0.3416 0.3416
vn -0.3416 0.8756 0.3416
vn 0.3416 0.8756 0.3416
vn 0.8756 0.3416 0.3416
vn 0.8756 -0.3416 0.3416
vn 0.3416 -0.8756 0.3416
vn -0.3416 -0.3416 0.8756
vn -0.3416 0.3416 0.8756
vn 0.3416 0.3416 0.8756
vn 0.3416 -0.3416 0.8756
# 24 vertex normals

vt 0.2332 0.8161 0.0000
vt 0.2332 0.1839 0.0000
vt 0.7668 0.1839 0.0000
vt 0.7668 0.8161 0.0000
vt 0.2332 1.0000 0.0000
vt 0.0000 0.8161 0.0000
vt 0.0000 0.1839 0.0000
vt 0.2332 0.0000 0.0000
vt 0.7668 0.0000 0.0000
vt 1.0000 0.1839 0.0000
vt 1.0000 0.8161 0.0000
vt 0.7668 1.0000 0.0000
vt 0.0000 1.0000 0.0000
vt 0.0000 0.0000 0.0000
vt 0.0670 0.0000 0.0000
vt 0.0670 1.0000 0.0000
vt 0.2299 0.0000 0.0000
vt 0.2299 1.0000 0.0000
vt 0.2969 0.0000 0.0000
vt 0.2969 1.0000 0.0000
vt 0.4053 0.0000 0.0000
vt 0.4053 1.0000 0.0000
vt 0.4723 0.0000 0.0000
vt 0.4723 1.0000 0.0000
vt 0.6351 0.0000 0.0000
vt 0.6351 1.0000 0.0000
vt 0.7021 0.0000 0.0000
vt 0.7021 1.0000 0.0000
vt 1.0000 0.0000 0.0000
vt 1.0000 1.0000 0.0000
# 30 texture coords

g ChamferBox001
usemtl wire_088177027
s 1
f -24/-30/-24 -23/-29/-23 -22/-28/-22 -21/-27/-21 
f -24/-30/-24 -20/-26/-20 -19/-25/-19 
f -24/-30/-24 -19/-25/-19 -18/-24/-18 -23/-29/-23 
f -23/-29/-23 -18/-24/-18 -17/-23/-17 
f -23/-29/-23 -17/-23/-17 -16/-22/-16 -22/-28/-22 
f -22/-28/-22 -16/-22/-16 -15/-21/-15 
f -22/-28/-22 -15/-21/-15 -14/-20/-14 -21/-27/-21 
f -21/-27/-21 -14/-20/-14 -13/-19/-13 
f -21/-27/-21 -13/-19/-13 -20/-26/-20 -24/-30/-24 
f -20/-18/-20 -12/-17/-12 -11/-16/-11 -19/-15/-19 
f -19/-15/-19 -11/-16/-11 -10/-14/-10 -18/-13/-18 
f -18/-13/-18 -10/-14/-10 -9/-12/-9 -17/-11/-17 
f -17/-11/-17 -9/-12/-9 -8/-10/-8 -16/-9/-16 
f -16/-9/-16 -8/-10/-8 -7/-8/-7 -15/-7/-15 
f -15/-7/-15 -7/-8/-7 -6/-6/-6 -14/-5/-14 
f -14/-5/-14 -6/-6/-6 -5/-4/-5 -13/-3/-13 
f -13/-3/-13 -5/-4/-5 -12/-2/-12 -20/-1/-20 
f -12/-23/-12 -4/-29/-4 -11/-24/-11 
f -11/-24/-11 -4/-29/-4 -3/-30/-3 -10/-25/-10 
f -10/-25/-10 -3/-30/-3 -9/-26/-9 
f -9/-26/-9 -3/-30/-3 -2/-27/-2 -8/-19/-8 
f -8/-19/-8 -2/-27/-2 -7/-20/-7 
f -7/-20/-7 -2/-27/-2 -1/-28/-1 -6/-21/-6 
f -6/-21/-6 -1/-28/-1 -5/-22/-5 
f -5/-22/-5 -1/-28/-1 -4/-29/-4 -12/-23/-12 
f -1/-28/-1 -2/-27/-2 -3/-30/-3 -4/-29/-4 
# 18 polygons - 8 triangles

#
# object C_Ext001
#

v  0.2741 17.3203 27.7000
v  25.9880 34.8295 27.7000
v  30.1660 37.6743 30.4109
v  0.2741 17.3203 30.4109
v  25.9881 34.8295 -7.5640
v  30.1660 37.6743 -10.2750
v  0.2741 17.3203 -7.5640
v  0.2741 17.3203 -10.2750
v  26.0378 40.9535 30.4109
v  -3.8540 20.5995 30.4109
v  26.0378 40.9535 -10.2750
v  -3.8540 20.5995 -10.2750
v  -3.8540 20.5995 -7.5640
v  21.8599 38.1087 -7.5640
v  21.8599 38.1087 27.7000
v  -3.8540 20.5995 27.7000
# 16 vertices

vn 0.7830 -0.6220 0.0000
vn -0.0000 0.0000 1.0000
vn 0.8266 0.5628 0.0000
vn 0.0000 -0.0000 -1.0000
vn -0.8266 -0.5628 -0.0000
vn -0.7830 0.6220 -0.0000
# 6 vertex normals

vt 0.0000 0.0666 0.0000
vt 0.8602 0.0666 0.0000
vt 1.0000 0.0000 0.0000
vt 0.0000 0.0000 0.0000
vt 0.8602 0.9334 0.0000
vt 1.0000 1.0000 0.0000
vt 0.0000 0.9334 0.0000
vt 0.0000 1.0000 0.0000
vt 0.1263 1.0000 0.0000
vt 0.1263 0.0000 0.0000
vt 0.3913 1.0000 0.0000
vt 0.3913 0.0000 0.0000
vt 0.5177 1.0000 0.0000
vt 0.5177 0.0000 0.0000
vt 0.5353 1.0000 0.0000
vt 0.5353 0.0000 0.0000
vt 0.6440 1.0000 0.0000
vt 0.6440 0.0000 0.0000
vt 0.8737 1.0000 0.0000
vt 0.8737 0.0000 0.0000
vt 0.9823 1.0000 0.0000
vt 0.9823 0.0000 0.0000
# 22 texture coords

g C_Ext001
usemtl wire_000000000
s 1
f -16/-22/-6 -15/-21/-6 -14/-20/-6 -13/-19/-6 
f -15/-21/-6 -12/-18/-6 -11/-17/-6 -14/-20/-6 
f -12/-18/-6 -10/-16/-6 -9/-15/-6 -11/-17/-6 
s 2
f -13/-15/-5 -14/-14/-5 -8/-13/-5 -7/-19/-5 
s 4
f -14/-14/-4 -11/-12/-4 -6/-11/-4 -8/-13/-4 
s 2
f -11/-12/-3 -9/-10/-3 -5/-9/-3 -6/-11/-3 
s 4
f -9/-10/-2 -10/-8/-2 -4/-7/-2 -5/-9/-2 
s 2
f -10/-8/-5 -12/-6/-5 -3/-5/-5 -4/-7/-5 
s 4
f -12/-6/-2 -15/-4/-2 -2/-3/-2 -3/-5/-2 
s 2
f -15/-4/-3 -16/-2/-3 -1/-1/-3 -2/-3/-3 
s 4
f -16/-2/-2 -13/-17/-2 -7/-20/-2 -1/-1/-2 
s 1
f -7/-15/-1 -8/-17/-1 -2/-18/-1 -1/-16/-1 
f -8/-17/-1 -6/-20/-1 -3/-21/-1 -2/-18/-1 
f -6/-20/-1 -5/-19/-1 -4/-22/-1 -3/-21/-1 
# 14 polygons

#
# object C_Ext002
#

v  1.7191 25.2566 27.7000
v  -23.9948 7.7474 27.7000
v  -28.1727 4.9026 30.4109
v  1.7191 25.2566 30.4109
v  -23.9948 7.7474 -7.5640
v  -28.1727 4.9026 -10.2750
v  1.7191 25.2566 -7.5640
v  1.7191 25.2566 -10.2750
v  -24.0446 1.6234 30.4109
v  5.8473 21.9774 30.4109
v  -24.0446 1.6234 -10.2750
v  5.8473 21.9774 -10.2750
v  5.8473 21.9774 -7.5640
v  -19.8666 4.4682 -7.5640
v  -19.8666 4.4682 27.7000
v  5.8473 21.9774 27.7000
# 16 vertices

vn -0.7830 0.6220 0.0000
vn 0.0000 -0.0000 1.0000
vn -0.8266 -0.5628 -0.0000
vn -0.0000 0.0000 -1.0000
vn 0.8266 0.5628 0.0000
vn 0.7830 -0.6220 -0.0000
# 6 vertex normals

vt 0.0000 0.0666 0.0000
vt 0.8602 0.0666 0.0000
vt 1.0000 0.0000 0.0000
vt 0.0000 0.0000 0.0000
vt 0.8602 0.9334 0.0000
vt 1.0000 1.0000 0.0000
vt 0.0000 0.9334 0.0000
vt 0.0000 1.0000 0.0000
vt 0.1263 1.0000 0.0000
vt 0.1263 0.0000 0.0000
vt 0.3913 1.0000 0.0000
vt 0.3913 0.0000 0.0000
vt 0.5177 1.0000 0.0000
vt 0.5177 0.0000 0.0000
vt 0.5353 1.0000 0.0000
vt 0.5353 0.0000 0.0000
vt 0.6440 1.0000 0.0000
vt 0.6440 0.0000 0.0000
vt 0.8737 1.0000 0.0000
vt 0.8737 0.0000 0.0000
vt 0.9823 1.0000 0.0000
vt 0.9823 0.0000 0.0000
# 22 texture coords

g C_Ext002
usemtl wire_000000000
s 1
f -16/-22/-6 -15/-21/-6 -14/-20/-6 -13/-19/-6 
f -15/-21/-6 -12/-18/-6 -11/-17/-6 -14/-20/-6 
f -12/-18/-6 -10/-16/-6 -9/-15/-6 -11/-17/-6 
s 2
f -13/-15/-5 -14/-14/-5 -8/-13/-5 -7/-19/-5 
s 4
f -14/-14/-4 -11/-12/-4 -6/-11/-4 -8/-13/-4 
s 2
f -11/-12/-3 -9/-10/-3 -5/-9/-3 -6/-11/-3 
s 4
f -9/-10/-2 -10/-8/-2 -4/-7/-2 -5/-9/-2 
s 2
f -10/-8/-5 -12/-6/-5 -3/-5/-5 -4/-7/-5 
s 4
f -12/-6/-2 -15/-4/-2 -2/-3/-2 -3/-5/-2 
s 2
f -15/-4/-3 -16/-2/-3 -1/-1/-3 -2/-3/-3 
s 4
f -16/-2/-2 -13/-17/-2 -7/-20/-2 -1/-1/-2 
s 1
f -7/-15/-1 -8/-17/-1 -2/-18/-1 -1/-16/-1 
f -8/-17/-1 -6/-20/-1 -3/-21/-1 -2/-18/-1 
f -6/-20/-1 -5/-19/-1 -4/-22/-1 -3/-21/-1 
# 14 polygons

#
# object C_Ext003
#

v  -6.3788 24.0205 27.7000
v  19.9123 6.7297 27.7000
v  24.1840 3.9203 30.4109
v  -6.3788 24.0205 30.4109
v  19.9123 6.7297 -7.5640
v  24.1839 3.9203 -10.2750
v  -6.3788 24.0205 -7.5640
v  -6.3788 24.0205 -10.2750
v  31.5904 5.0058 30.4109
v  1.0277 25.1059 30.4109
v  31.5904 5.0058 -10.2750
v  1.0277 25.1059 -10.2750
v  1.0277 25.1059 -7.5640
v  27.3187 7.8151 -7.5640
v  27.3187 7.8151 27.7000
v  1.0277 25.1059 27.7000
# 16 vertices

vn -0.9894 -0.1450 0.0000
vn 0.0000 -0.0000 1.0000
vn 0.8355 -0.5495 -0.0000
vn -0.0000 0.0000 -1.0000
vn -0.8355 0.5495 0.0000
vn 0.9894 0.1450 -0.0000
# 6 vertex normals

vt 0.0000 0.0666 0.0000
vt 0.8602 0.0666 0.0000
vt 1.0000 0.0000 0.0000
vt 0.0000 0.0000 0.0000
vt 0.8602 0.9334 0.0000
vt 1.0000 1.0000 0.0000
vt 0.0000 0.9334 0.0000
vt 0.0000 1.0000 0.0000
vt 0.1263 1.0000 0.0000
vt 0.1263 0.0000 0.0000
vt 0.3913 1.0000 0.0000
vt 0.3913 0.0000 0.0000
vt 0.5177 1.0000 0.0000
vt 0.5177 0.0000 0.0000
vt 0.5353 1.0000 0.0000
vt 0.5353 0.0000 0.0000
vt 0.6440 1.0000 0.0000
vt 0.6440 0.0000 0.0000
vt 0.8737 1.0000 0.0000
vt 0.8737 0.0000 0.0000
vt 0.9823 1.0000 0.0000
vt 0.9823 0.0000 0.0000
# 22 texture coords

g C_Ext003
usemtl wire_000000000
s 1
f -16/-22/-6 -15/-21/-6 -14/-20/-6 -13/-19/-6 
f -15/-21/-6 -12/-18/-6 -11/-17/-6 -14/-20/-6 
f -12/-18/-6 -10/-16/-6 -9/-15/-6 -11/-17/-6 
s 2
f -13/-15/-5 -14/-14/-5 -8/-13/-5 -7/-19/-5 
s 4
f -14/-14/-4 -11/-12/-4 -6/-11/-4 -8/-13/-4 
s 2
f -11/-12/-3 -9/-10/-3 -5/-9/-3 -6/-11/-3 
s 4
f -9/-10/-2 -10/-8/-2 -4/-7/-2 -5/-9/-2 
s 2
f -10/-8/-5 -12/-6/-5 -3/-5/-5 -4/-7/-5 
s 4
f -12/-6/-2 -15/-4/-2 -2/-3/-2 -3/-5/-2 
s 2
f -15/-4/-3 -16/-2/-3 -1/-1/-3 -2/-3/-3 
s 4
f -16/-2/-2 -13/-17/-2 -7/-20/-2 -1/-1/-2 
s 1
f -7/-15/-1 -8/-17/-1 -2/-18/-1 -1/-16/-1 
f -8/-17/-1 -6/-20/-1 -3/-21/-1 -2/-18/-1 
f -6/-20/-1 -5/-19/-1 -4/-22/-1 -3/-21/-1 
# 14 polygons

#
# object C_Ext004
#

v  8.3720 21.1191 27.7000
v  -17.9190 38.4099 27.7000
v  -22.1907 41.2192 30.4109
v  8.3720 21.1191 30.4109
v  -17.9190 38.4099 -7.5640
v  -22.1907 41.2192 -10.2750
v  8.3721 21.1191 -7.5640
v  8.3721 21.1191 -10.2750
v  -29.5971 40.1337 30.4109
v  0.9656 20.0336 30.4109
v  -29.5971 40.1338 -10.2750
v  0.9656 20.0336 -10.2750
v  0.9656 20.0336 -7.5640
v  -25.3254 37.3244 -7.5640
v  -25.3254 37.3244 27.7000
v  0.9656 20.0336 27.7000
# 16 vertices

vn 0.9894 0.1450 0.0000
vn -0.0000 -0.0000 1.0000
vn -0.8355 0.5495 0.0000
vn 0.0000 0.0000 -1.0000
vn 0.8355 -0.5495 -0.0000
vn -0.9894 -0.1450 -0.0000
# 6 vertex normals

vt 0.0000 0.0666 0.0000
vt 0.8602 0.0666 0.0000
vt 1.0000 0.0000 0.0000
vt 0.0000 0.0000 0.0000
vt 0.8602 0.9334 0.0000
vt 1.0000 1.0000 0.0000
vt 0.0000 0.9334 0.0000
vt 0.0000 1.0000 0.0000
vt 0.1263 1.0000 0.0000
vt 0.1263 0.0000 0.0000
vt 0.3913 1.0000 0.0000
vt 0.3913 0.0000 0.0000
vt 0.5177 1.0000 0.0000
vt 0.5177 0.0000 0.0000
vt 0.5353 1.0000 0.0000
vt 0.5353 0.0000 0.0000
vt 0.6440 1.0000 0.0000
vt 0.6440 0.0000 0.0000
vt 0.8737 1.0000 0.0000
vt 0.8737 0.0000 0.0000
vt 0.9823 1.0000 0.0000
vt 0.9823 0.0000 0.0000
# 22 texture coords

g C_Ext004
usemtl wire_000000000
s 1
f -16/-22/-6 -15/-21/-6 -14/-20/-6 -13/-19/-6 
f -15/-21/-6 -12/-18/-6 -11/-17/-6 -14/-20/-6 
f -12/-18/-6 -10/-16/-6 -9/-15/-6 -11/-17/-6 
s 2
f -13/-15/-5 -14/-14/-5 -8/-13/-5 -7/-19/-5 
s 4
f -14/-14/-4 -11/-12/-4 -6/-11/-4 -8/-13/-4 
s 2
f -11/-12/-3 -9/-10/-3 -5/-9/-3 -6/-11/-3 
s 4
f -9/-10/-2 -10/-8/-2 -4/-7/-2 -5/-9/-2 
s 2
f -10/-8/-5 -12/-6/-5 -3/-5/-5 -4/-7/-5 
s 4
f -12/-6/-2 -15/-4/-2 -2/-3/-2 -3/-5/-2 
s 2
f -15/-4/-3 -16/-2/-3 -1/-1/-3 -2/-3/-3 
s 4
f -16/-2/-2 -13/-17/-2 -7/-20/-2 -1/-1/-2 
s 1
f -7/-15/-1 -8/-17/-1 -2/-18/-1 -1/-16/-1 
f -8/-17/-1 -6/-20/-1 -3/-21/-1 -2/-18/-1 
f -6/-20/-1 -5/-19/-1 -4/-22/-1 -3/-21/-1 
# 14 polygons

